<svg width="32" height="32" viewBox="0 0 32 32" fill="none" xmlns="http://www.w3.org/2000/svg">
    <path
        d="M10.8536 11.3223L7.74806 14.4279C7.50456 14.6713 7.50393 15.0659 7.7465 15.3102L15.5566 23.1761C15.6739 23.2943 15.8336 23.3607 16.0001 23.3607C16.1667 23.3607 16.3263 23.2942 16.4437 23.1761L24.2536 15.3102C24.4962 15.0659 24.4955 14.6713 24.2521 14.4279L21.1465 11.3223C21.0293 11.2051 20.8703 11.1393 20.7046 11.1393H11.2956C11.1297 11.1393 10.9708 11.2051 10.8536 11.3223ZM12.9452 15.4948L14.5721 20.4105L9.69131 15.4948H12.9452ZM22.3087 15.4948L17.4278 20.4106L19.0548 15.4948H22.3087ZM17.7381 15.4948L16 20.7465L14.2619 15.4948H17.7381V15.4948ZM14.2638 14.2448L14.8823 12.3892H17.1177L17.7362 14.2448H14.2638ZM22.3011 14.2448H19.0538L18.4353 12.3892H20.4456L22.3011 14.2448ZM13.5647 12.3893L12.9462 14.2448H9.69887L11.5544 12.3893H13.5647Z"
        fill="#042F48" />
    <path
        d="M18.9261 0.267068C18.5871 0.204505 18.2607 0.428568 18.198 0.768068C18.1353 1.10751 18.3595 1.43351 18.699 1.49626C25.6818 2.78713 30.75 8.88682 30.75 16C30.75 24.1332 24.1332 30.75 16 30.75C7.86681 30.75 1.25 24.1332 1.25 16C1.25 8.88682 6.31819 2.78713 13.301 1.49626C13.6405 1.43351 13.8647 1.10751 13.802 0.768068C13.7393 0.42863 13.4131 0.204755 13.0739 0.267068C5.49838 1.66751 0 8.28413 0 16C0 20.2738 1.66431 24.2918 4.68625 27.3137C7.70831 30.3358 11.7262 32 16 32C20.2738 32 24.2917 30.3358 27.3137 27.3137C30.3357 24.2918 32 20.2738 32 16C32 8.28413 26.5016 1.66751 18.9261 0.267068Z"
        fill="#042F48" />
    <path
        d="M16 1.25C16.3452 1.25 16.625 0.970178 16.625 0.625C16.625 0.279822 16.3452 0 16 0C15.6548 0 15.375 0.279822 15.375 0.625C15.375 0.970178 15.6548 1.25 16 1.25Z"
        fill="#042F48" />
    <path
        d="M3.125 16C3.125 23.0993 8.90069 28.875 16 28.875C23.0993 28.875 28.875 23.0993 28.875 16C28.875 8.90069 23.0993 3.125 16 3.125C8.90069 3.125 3.125 8.90069 3.125 16ZM27.625 16C27.625 22.41 22.41 27.625 16 27.625C9.59 27.625 4.375 22.41 4.375 16C4.375 9.59 9.58994 4.375 16 4.375C22.4101 4.375 27.625 9.58994 27.625 16Z"
        fill="#042F48" />
</svg>
