<svg width="28" height="32" viewBox="0 0 28 32" fill="none" xmlns="http://www.w3.org/2000/svg">
    <path
        d="M26.4889 3.91244C22.4967 3.66244 18.4121 2.37681 14.3486 0.0913125C14.132 -0.0304375 13.8679 -0.0304375 13.6513 0.0913125C9.58775 2.37687 5.50319 3.6625 1.511 3.91244C1.13631 3.93587 0.844376 4.24669 0.844376 4.62219V18.1333C0.844376 20.3691 1.54206 22.4966 2.91788 24.4568C3.99869 25.9966 5.49794 27.4334 7.374 28.7271C10.5349 30.9068 13.6508 31.9236 13.7819 31.9657C13.8527 31.9886 13.9263 31.9999 13.9998 31.9999C14.0733 31.9999 14.1469 31.9885 14.2177 31.9657C14.3489 31.9235 17.4647 30.9067 20.6256 28.7271C22.5017 27.4335 24.0009 25.9967 25.0817 24.4568C26.4577 22.4966 27.1554 20.3691 27.1554 18.1333V4.62225C27.1555 4.24669 26.8636 3.93594 26.4889 3.91244ZM25.7333 18.1333C25.7333 21.6707 23.7526 24.8346 19.846 27.5373C17.317 29.2869 14.7496 30.2694 13.9997 30.5368C13.2529 30.2712 10.708 29.2986 8.18144 27.5562C4.25663 24.8498 2.26663 21.6795 2.26663 18.1333V5.28119C6.14494 4.93381 10.0869 3.67188 13.9999 1.5245C17.913 3.67175 21.8549 4.93375 25.7332 5.28119V18.1333H25.7333Z"
        fill="#042F48" />
    <path
        d="M16.6568 18.6452C16.5562 18.0412 16.4528 17.4209 16.3611 16.8061C17.5481 16.0206 18.2667 14.7011 18.2667 13.2519C18.2667 10.8993 16.3527 8.98523 14 8.98523C11.6473 8.98523 9.73328 10.8992 9.73328 13.2519C9.73328 14.7011 10.4518 16.0206 11.6388 16.806C11.5472 17.4208 11.4438 18.0412 11.3431 18.6451C11.1372 19.8812 10.924 21.1592 10.8032 22.4288C10.7842 22.6283 10.8502 22.8264 10.985 22.9747C11.1197 23.1229 11.3107 23.2074 11.511 23.2074H16.4888C16.6891 23.2074 16.8802 23.1229 17.0148 22.9747C17.1497 22.8265 17.2156 22.6283 17.1967 22.4288C17.0759 21.1593 16.8628 19.8812 16.6568 18.6452ZM14.8843 16.5304C14.9935 17.3165 15.1259 18.1108 15.2539 18.879C15.4131 19.8342 15.5766 20.8152 15.6957 21.7852H12.3043C12.4233 20.8152 12.5868 19.8342 12.746 18.879C12.874 18.1108 13.0065 17.3165 13.1156 16.5304C13.1575 16.2284 13.0022 15.9332 12.7295 15.7967C11.7587 15.3108 11.1556 14.3356 11.1556 13.2519C11.1556 11.6835 12.4316 10.4075 14 10.4075C15.5685 10.4075 16.8445 11.6835 16.8445 13.2519C16.8445 14.3357 16.2414 15.3108 15.2705 15.7967C14.9978 15.9331 14.8425 16.2283 14.8843 16.5304Z"
        fill="#042F48" />
    <path
        d="M13.6765 3.30528C10.5608 4.89684 7.40164 5.95828 4.28689 6.46028C3.9422 6.51584 3.68889 6.81328 3.68889 7.16234V18.1333C3.68889 21.1515 5.43651 23.9033 8.88326 26.3122C10.7831 27.6398 12.7379 28.512 13.7341 28.9136C13.8194 28.948 13.9098 28.9652 14 28.9652C14.0903 28.9652 14.1806 28.948 14.2659 28.9136C14.7892 28.7026 15.608 28.3496 16.5367 27.8664C16.8851 27.6851 17.0206 27.2558 16.8393 26.9073C16.6581 26.5589 16.2287 26.4235 15.8803 26.6048C15.1465 26.9866 14.4859 27.2821 14.0001 27.4853C13.0048 27.0689 11.3267 26.2846 9.69808 25.1464C6.65439 23.0193 5.11114 20.6597 5.11114 18.1333V7.76159C8.0692 7.22121 11.0552 6.20465 14 4.73515C16.9449 6.20465 19.9308 7.22121 22.8889 7.76159V18.1333C22.8889 20.0051 22.0361 21.7968 20.354 23.4586C20.0746 23.7347 20.0719 24.1849 20.3479 24.4643C20.6241 24.7437 21.0742 24.7464 21.3536 24.4703C23.316 22.5314 24.3111 20.3994 24.3111 18.1333V7.16234C24.3111 6.81328 24.0577 6.51578 23.7131 6.46028C20.5983 5.95828 17.4391 4.89684 14.3235 3.30528C14.1202 3.20146 13.8796 3.20146 13.6765 3.30528Z"
        fill="#042F48" />
    <path
        d="M18.1793 25.2351C18.1572 25.2574 18.1351 25.2796 18.1129 25.3015C17.8337 25.5777 17.8315 26.0281 18.1077 26.3071C18.2468 26.4476 18.4299 26.518 18.6131 26.518C18.7938 26.518 18.9747 26.4495 19.1133 26.3122C19.1386 26.2871 19.1639 26.2618 19.1892 26.2364C19.4657 25.9575 19.4637 25.5072 19.1847 25.2307C18.906 24.9543 18.4558 24.9562 18.1793 25.2351Z"
        fill="#042F48" />
</svg>
