<svg width="32" height="32" viewBox="0 0 32 32" fill="none" xmlns="http://www.w3.org/2000/svg">
    <path
        d="M9.47308 13.0581C9.35683 12.9419 9.19558 12.875 9.0312 12.875C8.86683 12.875 8.70564 12.9418 8.58933 13.0581C8.47308 13.1744 8.4062 13.3356 8.4062 13.5C8.4062 13.6644 8.47308 13.8256 8.58933 13.9418C8.70558 14.0581 8.86683 14.125 9.0312 14.125C9.19558 14.125 9.35683 14.0581 9.47308 13.9418C9.58933 13.8256 9.65621 13.6644 9.65621 13.5C9.65621 13.3356 9.58933 13.1744 9.47308 13.0581Z"
        fill="#042F48" />
    <path
        d="M30.1249 0H5.24998C4.2161 0 3.37498 0.841122 3.37498 1.87499V12.25C3.37498 13.2838 4.2161 14.1249 5.24998 14.1249H6.37497C6.72016 14.1249 6.99997 13.8451 6.99997 13.4999C6.99997 13.1548 6.72016 12.8749 6.37497 12.8749H5.24998C4.90535 12.8749 4.62498 12.5946 4.62498 12.25V1.87499C4.62498 1.53037 4.90535 1.25 5.24998 1.25H30.1249C30.4695 1.25 30.7499 1.53037 30.7499 1.87499V12.25C30.7499 12.5946 30.4695 12.8749 30.1249 12.8749H25.9445C25.7787 12.8749 25.6197 12.9408 25.5025 13.058L23.4445 15.1161L21.3864 13.058C21.2692 12.9408 21.1102 12.8749 20.9445 12.8749H16.0704C16.0245 12.7569 15.9726 12.6405 15.9137 12.5263C15.4662 11.6568 14.7045 11.0214 13.769 10.737L12.8654 10.4622C12.5473 10.3653 12.209 10.5348 12.0959 10.8475L10.676 14.7718C10.2822 15.8603 9.50546 16.7645 8.48896 17.3181L7.15609 18.0438C6.82853 17.6462 6.3326 17.3922 5.77841 17.3922H1.78468C0.80068 17.3922 0.00018312 18.1928 0.00018312 19.1768V30.2153C5.81206e-05 31.1993 0.800618 31.9999 1.78461 31.9999H5.77835C6.40047 31.9999 6.94891 31.6797 7.26841 31.1956L7.90615 31.4458C8.84377 31.8136 9.82996 32 10.8373 32H19.2702C20.5355 32 21.5649 30.9706 21.5649 29.7053C21.5649 29.2865 21.4516 28.8939 21.2548 28.5556C22.1857 28.263 22.8628 27.3921 22.8628 26.366C22.8628 25.9365 22.744 25.5344 22.5378 25.1903C23.4291 24.8751 24.0695 24.0244 24.0695 23.0265C24.0695 21.9872 23.3746 21.1075 22.4252 20.8264C22.6183 20.4904 22.7293 20.1015 22.7293 19.687C22.7293 18.4218 21.6999 17.3924 20.4346 17.3924H15.4229L16.1237 15.3115C16.2547 14.9225 16.3167 14.5225 16.3125 14.125H20.6856L23.0025 16.4419C23.1246 16.5639 23.2845 16.625 23.4445 16.625C23.6044 16.625 23.7644 16.5639 23.8864 16.4419L26.2034 14.1249H30.1249C31.1588 14.1249 31.9999 13.2838 31.9999 12.25V1.87499C31.9999 0.841122 31.1588 0 30.1249 0ZM6.31291 30.2153C6.31285 30.5101 6.0731 30.7499 5.77835 30.7499H1.78461C1.48986 30.7499 1.25012 30.5101 1.25012 30.2153V19.1769C1.25012 18.8821 1.48986 18.6423 1.78461 18.6423H3.15648V26.3373C3.15648 26.6825 3.4363 26.9623 3.78148 26.9623C4.12667 26.9623 4.40648 26.6825 4.40648 26.3373V18.6423H5.77835C6.01179 18.6423 6.21022 18.793 6.28291 19.002C6.2881 19.0322 6.2956 19.0622 6.30547 19.0919C6.30991 19.1197 6.31291 19.1479 6.31291 19.1769V30.2153ZM20.4347 18.6422V18.6423C21.0107 18.6423 21.4794 19.1109 21.4794 19.687C21.4794 20.263 21.0107 20.7317 20.4347 20.7317H17.044C16.6988 20.7317 16.419 21.0116 16.419 21.3567C16.419 21.7019 16.6988 21.9817 17.044 21.9817L21.7748 21.9819C22.3509 21.9819 22.8195 22.4505 22.8195 23.0265C22.8195 23.6026 22.3509 24.0713 21.7748 24.0713H17.044C16.6988 24.0713 16.419 24.3512 16.419 24.6963C16.419 25.0414 16.6988 25.3213 17.044 25.3213H20.5682C21.1443 25.3213 21.6129 25.7899 21.6129 26.366C21.6129 26.942 21.1443 27.4106 20.5682 27.4106H17.044C16.6988 27.4106 16.419 27.6905 16.419 28.0356C16.419 28.3808 16.6988 28.6606 17.044 28.6606H19.2703C19.8464 28.6606 20.315 29.1293 20.315 29.7054C20.315 30.2814 19.8464 30.7501 19.2703 30.7501H10.8373C9.98683 30.7501 9.15421 30.5926 8.36253 30.2821L7.56284 29.9685V19.2456L9.08665 18.4159C10.3717 17.7161 11.3535 16.5731 11.8513 15.1971L13.0694 11.8308L13.4054 11.9329C14.0148 12.1182 14.5109 12.5321 14.8024 13.0983C15.0939 13.6646 15.1424 14.3089 14.9391 14.9124L13.9606 17.8177C13.8963 18.0085 13.9279 18.2185 14.0453 18.3819C14.1627 18.5453 14.3516 18.6422 14.5529 18.6422H20.4347Z"
        fill="#042F48" />
    <path
        d="M29.1375 6.06101C29.0191 5.69701 28.7102 5.4367 28.3313 5.38176L27.2258 5.22145L26.7312 4.21989C26.5617 3.8767 26.2187 3.66357 25.836 3.66357C25.836 3.66357 25.8358 3.66357 25.8357 3.66357C25.4529 3.6637 25.1099 3.87701 24.9406 4.22032L24.4465 5.2222L23.341 5.38314C22.9622 5.43832 22.6534 5.69876 22.5352 6.06289C22.417 6.42695 22.5139 6.81914 22.7882 7.08632L23.5883 7.86582L23.3997 8.96689C23.3351 9.34426 23.4874 9.71832 23.7972 9.94333C23.9722 10.0704 24.1768 10.1349 24.3829 10.1349C24.5417 10.1349 24.7013 10.0966 24.8487 10.019L25.8374 9.49889L26.8263 10.0184C27.1652 10.1964 27.5681 10.1673 27.8778 9.94214C28.1874 9.71701 28.3395 9.34282 28.2747 8.96551L28.0855 7.86457L28.8853 7.08457C29.1592 6.8172 29.2558 6.42501 29.1375 6.06101ZM27.1179 7.06207C26.8826 7.29151 26.7754 7.62195 26.831 7.94589L26.9562 8.67476L26.3013 8.33064C26.0103 8.17801 25.663 8.17801 25.3723 8.33101L24.7177 8.67539L24.8425 7.94645C24.898 7.62239 24.7906 7.29201 24.5552 7.0627L24.0254 6.54657L24.7573 6.44001C25.0826 6.3927 25.3635 6.18845 25.5089 5.8937L25.836 5.23039L26.1635 5.89351C26.3091 6.1882 26.5902 6.39226 26.9154 6.43945L27.6473 6.54557L27.1179 7.06207Z"
        fill="#042F48" />
    <path
        d="M21.1867 6.06101C21.0683 5.69701 20.7594 5.43676 20.3806 5.38176L19.2751 5.22145L18.7804 4.21989C18.6109 3.8767 18.2679 3.66357 17.8852 3.66357C17.8851 3.66357 17.885 3.66357 17.8849 3.66357C17.5021 3.6637 17.1591 3.87701 16.9898 4.22039L16.4957 5.2222L15.3902 5.38314C15.0114 5.43832 14.7026 5.69876 14.5844 6.06289C14.4662 6.42695 14.5631 6.81914 14.8374 7.08632L15.6375 7.86582L15.4489 8.96689C15.3843 9.34426 15.5366 9.71839 15.8464 9.94333C16.0213 10.0704 16.226 10.1349 16.4321 10.1349C16.5908 10.1349 16.7504 10.0966 16.8978 10.019L17.8865 9.49889L18.8755 10.0184C19.2144 10.1964 19.6172 10.1673 19.9269 9.94214C20.2366 9.71701 20.3886 9.34282 20.3238 8.96551L20.1347 7.86457L20.9345 7.08457C21.2084 6.8172 21.3051 6.42507 21.1867 6.06101ZM19.1671 7.06207C18.9318 7.29151 18.8246 7.62195 18.8803 7.94589L19.0054 8.67476L18.3505 8.3307C18.0594 8.17789 17.7121 8.17807 17.4214 8.33101L16.7669 8.67539L16.8917 7.94645C16.9472 7.62239 16.8398 7.29201 16.6043 7.0627L16.0745 6.54657L16.8064 6.44001C17.1316 6.3927 17.4126 6.18851 17.5581 5.89364L17.8852 5.23032L18.2126 5.89339C18.3581 6.18814 18.6393 6.39226 18.9646 6.43945L19.6965 6.54557L19.1671 7.06207Z"
        fill="#042F48" />
    <path
        d="M13.236 6.06101C13.1175 5.69701 12.8087 5.4367 12.4299 5.38176L11.3244 5.22145L10.8297 4.21989C10.6602 3.8767 10.3172 3.66357 9.93448 3.66357C9.93442 3.66357 9.93429 3.66357 9.93423 3.66357C9.55142 3.6637 9.20835 3.87701 9.03904 4.22039L8.54498 5.2222L7.43948 5.38314C7.0606 5.43832 6.75192 5.69882 6.63367 6.06295C6.51548 6.42701 6.61242 6.8192 6.8866 7.08632L7.68673 7.86582L7.49817 8.96689C7.43354 9.34426 7.58585 9.71839 7.8956 9.94333C8.07054 10.0704 8.27523 10.1349 8.48129 10.1349C8.64004 10.1349 8.7996 10.0966 8.94704 10.019L9.93573 9.49889L10.9247 10.0184C11.2635 10.1964 11.6664 10.1673 11.9761 9.94214C12.2857 9.71701 12.4378 9.34282 12.373 8.96551L12.1839 7.86457L12.9837 7.08457C13.2577 6.8172 13.3544 6.42507 13.236 6.06101ZM11.2164 7.06207C10.9811 7.29151 10.8739 7.62195 10.9295 7.94589L11.0547 8.67476L10.3998 8.3307C10.1088 8.17789 9.76135 8.17807 9.47073 8.33101L8.81617 8.67539L8.94104 7.94626C8.99642 7.62232 8.88898 7.29207 8.6536 7.0627L8.12379 6.54657L8.85567 6.44001C9.18092 6.3927 9.46185 6.18851 9.60735 5.89364L9.93448 5.23032L10.2619 5.89339C10.4074 6.18814 10.6885 6.39226 11.0139 6.43945L11.7459 6.54557L11.2164 7.06207Z"
        fill="#042F48" />
    <path
        d="M3.78148 27.9597C3.43629 27.9597 3.15648 28.2396 3.15648 28.5847V28.5945C3.15648 28.9396 3.43629 29.2195 3.78148 29.2195C4.12667 29.2195 4.40648 28.9396 4.40648 28.5945V28.5847C4.40648 28.2396 4.12667 27.9597 3.78148 27.9597Z"
        fill="#042F48" />
</svg>
