<svg width="24" height="24" viewBox="0 0 24 24" fill="none" xmlns="http://www.w3.org/2000/svg">
    <path
        d="M23.645 9.91964L20.7402 9.19322C20.5861 8.71237 20.3937 8.24658 20.1659 7.80295L21.7052 5.23711C21.8159 5.05266 21.7868 4.81659 21.6347 4.66453L19.3355 2.36527C19.1834 2.21316 18.9473 2.18414 18.7629 2.29477L16.197 3.83414C15.7518 3.60562 15.2861 3.41316 14.8067 3.25973L14.0804 0.355031C14.0282 0.146391 13.8407 0 13.6256 0H10.3744C10.1593 0 9.97181 0.146391 9.91964 0.355031L9.19326 3.25969C8.71387 3.41311 8.24817 3.60558 7.803 3.83409L5.23711 2.29472C5.05266 2.18409 4.81659 2.21311 4.66448 2.36522L2.36527 4.66448C2.2132 4.81655 2.18414 5.05266 2.29477 5.23706L3.83409 7.80291C3.60633 8.24653 3.41391 8.71233 3.25983 9.19317L0.355031 9.91964C0.146391 9.97181 0 10.1593 0 10.3744V13.6256C0 13.8407 0.146391 14.0282 0.355031 14.0804L3.25983 14.8068C3.41391 15.2876 3.60633 15.7534 3.83409 16.197L2.29477 18.7629C2.18414 18.9473 2.2132 19.1834 2.36527 19.3355L4.66448 21.6347C4.81664 21.7868 5.05266 21.8159 5.23711 21.7052L7.80305 20.1658C8.24761 20.3939 8.71336 20.5863 9.19322 20.7401L9.91964 23.6449C9.97181 23.8536 10.1593 24 10.3744 24H13.6256C13.8407 24 14.0281 23.8536 14.0803 23.6449L14.8067 20.7401C15.2866 20.5863 15.7523 20.3939 16.1969 20.1658L18.7628 21.7052C18.9472 21.8159 19.1834 21.7868 19.3355 21.6347L21.6347 19.3355C21.7867 19.1834 21.8158 18.9473 21.7052 18.7629L20.1659 16.197C20.3936 15.7534 20.586 15.2876 20.7401 14.8068L23.6449 14.0804C23.8536 14.0282 24 13.8407 24 13.6256V10.3744C24 10.1593 23.8536 9.97181 23.645 9.91964V9.91964ZM23.0625 13.2597L20.2553 13.9617C20.0932 14.0022 19.965 14.1259 19.9186 14.2865C19.7471 14.8812 19.5111 15.4523 19.2172 15.984C19.1363 16.1303 19.1395 16.3086 19.2255 16.452L20.713 18.9314L18.9313 20.7131L16.4519 19.2256C16.3086 19.1397 16.1305 19.1365 15.9842 19.2172C15.4507 19.5116 14.8794 19.7476 14.2864 19.9187C14.1258 19.965 14.0021 20.0933 13.9615 20.2554L13.2596 23.0625H10.7404L10.0383 20.2553C9.99783 20.0932 9.87403 19.965 9.71348 19.9187C9.12047 19.7476 8.5492 19.5116 8.01567 19.2171C7.86942 19.1364 7.69125 19.1396 7.548 19.2255L5.06855 20.713L3.28697 18.9314L4.77445 16.452C4.86042 16.3086 4.86361 16.1303 4.78275 15.984C4.48889 15.4523 4.25287 14.8812 4.08131 14.2865C4.035 14.1259 3.9067 14.0022 3.74461 13.9617L0.9375 13.2597V10.7403L3.74466 10.0383C3.90675 9.99778 4.035 9.87408 4.08136 9.71353C4.25292 9.11878 4.48894 8.54766 4.7828 8.01595C4.8637 7.86966 4.86047 7.69139 4.7745 7.54805L3.28697 5.06859L5.06864 3.28692L7.54809 4.77441C7.69139 4.86037 7.86961 4.86356 8.01586 4.7828C8.55028 4.48767 9.12141 4.25166 9.7133 4.08136C9.87398 4.03514 9.99783 3.9068 10.0384 3.74461L10.7404 0.9375H13.2596L13.9617 3.74466C14.0022 3.90684 14.1261 4.03514 14.2868 4.08141C14.8787 4.2517 15.4498 4.48772 15.9842 4.78284C16.1305 4.86361 16.3087 4.86047 16.452 4.77445L18.9315 3.28697L20.7131 5.06864L19.2256 7.54809C19.1397 7.69144 19.1365 7.8697 19.2173 8.016C19.5112 8.5477 19.7472 9.11883 19.9188 9.71358C19.9651 9.87412 20.0934 9.99783 20.2555 10.0384L23.0625 10.7403V13.2597Z"
        fill="white" />
    <path
        d="M16.4062 16.4062C16.6651 16.4062 16.875 16.1964 16.875 15.9375C16.875 15.6786 16.6651 15.4688 16.4062 15.4688C16.1474 15.4688 15.9375 15.6786 15.9375 15.9375C15.9375 16.1964 16.1474 16.4062 16.4062 16.4062Z"
        fill="white" />
    <path
        d="M12 5.625C8.48484 5.625 5.625 8.4848 5.625 12C5.625 15.5152 8.48484 18.375 12 18.375C13.0291 18.375 14.0524 18.1229 14.9593 17.6458C15.1884 17.5252 15.2764 17.2418 15.1558 17.0127C15.0352 16.7836 14.7517 16.6956 14.5227 16.8161C13.75 17.2226 12.8777 17.4375 12 17.4375C9.00173 17.4375 6.5625 14.9982 6.5625 12C6.5625 9.00178 9.00173 6.5625 12 6.5625C14.9983 6.5625 17.4375 9.00178 17.4375 12C17.4375 12.6786 17.3136 13.3407 17.0692 13.9679C16.9752 14.2091 17.0946 14.4808 17.3358 14.5748C17.5772 14.6688 17.8488 14.5494 17.9427 14.3083C18.2295 13.5721 18.375 12.7955 18.375 12C18.375 8.4848 15.5152 5.625 12 5.625V5.625Z"
        fill="white" />
</svg>
