<svg width="32" height="32" viewBox="0 0 32 32" fill="none" xmlns="http://www.w3.org/2000/svg">
    <path
        d="M16 0C7.5061 0 0 6.86182 0 15.625V22C0 24.4124 1.96265 26.375 4.375 26.375H6.875C7.90894 26.375 8.75 25.5339 8.75 24.5V14.375C8.75 13.3411 7.90894 12.5 6.875 12.5C6.875 12.5 4.23804 12.5022 4.16992 12.5054C5.32837 8.37671 8.90942 5.03394 13.3406 4.04443C13.6775 3.96924 13.8896 3.63525 13.8145 3.29834C13.739 2.96143 13.4053 2.74927 13.0681 2.82446C7.97314 3.9624 3.896 7.94165 2.80981 12.7891C2.27637 12.9937 1.79761 13.2988 1.39258 13.6785C2.40186 6.76733 8.68042 1.25 16 1.25C23.3193 1.25 29.5981 6.76733 30.6074 13.6785C30.2024 13.2986 29.7236 12.9934 29.1902 12.7891C28.104 7.94141 24.0269 3.96216 18.9319 2.82446C18.5952 2.74902 18.261 2.96143 18.1858 3.29834C18.1106 3.63525 18.3225 3.96924 18.6594 4.04443C23.0906 5.03394 26.6716 8.37671 27.8303 12.5054C27.762 12.5022 27.6936 12.5 27.625 12.5H25.125C24.0911 12.5 23.25 13.3411 23.25 14.375V24.5C23.25 25.5339 24.0911 26.375 25.125 26.375H27V27.625C27 28.3142 26.4392 28.875 25.75 28.875H18.4209C18.1426 27.7979 17.1628 27 16 27C14.6216 27 13.5 28.1216 13.5 29.5C13.5 30.8784 14.6216 32 16 32C17.1628 32 18.1426 31.2021 18.4209 30.125H25.75C27.1284 30.125 28.25 29.0034 28.25 27.625V26.3296C30.3674 26.0254 32 24.2002 32 22V15.625C32 6.93506 24.5769 0 16 0ZM7.5 14.375V24.5C7.5 24.8447 7.21973 25.125 6.875 25.125H5V13.75H6.875C7.21973 13.75 7.5 14.0303 7.5 14.375ZM3.75 13.8127V25.062C2.3252 24.7717 1.25 23.509 1.25 22V16.875C1.25 15.4075 2.28931 14.1091 3.75 13.8127ZM16 30.75C15.3108 30.75 14.75 30.1892 14.75 29.5C14.75 28.8108 15.3108 28.25 16 28.25C16.6892 28.25 17.25 28.8108 17.25 29.5C17.25 30.1892 16.6892 30.75 16 30.75ZM24.5 24.5V14.375C24.5 14.0303 24.7803 13.75 25.125 13.75H27V25.125H25.125C24.7803 25.125 24.5 24.8447 24.5 24.5ZM28.25 25.062V13.8127C29.7173 14.1108 30.75 15.4136 30.75 16.875V22C30.75 23.509 29.6748 24.7717 28.25 25.062Z"
        fill="#042F48" />
    <path
        d="M16.625 3.125C16.625 3.47021 16.3452 3.75 16 3.75C15.6548 3.75 15.375 3.47021 15.375 3.125C15.375 2.77979 15.6548 2.5 16 2.5C16.3452 2.5 16.625 2.77979 16.625 3.125Z"
        fill="#042F48" />
</svg>
