<svg width="32" height="32" viewBox="0 0 32 32" fill="none" xmlns="http://www.w3.org/2000/svg">
    <path
        d="M13.5806 22.3773C12.7712 22.3773 12.0089 22.064 11.4334 21.4945H11.4334L8.226 18.321C7.80131 17.9008 7.56575 17.3404 7.56256 16.7431C7.55938 16.1458 7.78906 15.583 8.20919 15.1584C8.62931 14.7338 9.18969 14.4982 9.787 14.4951H9.79925C10.3921 14.4951 10.9501 14.7244 11.3718 15.1417L13.5755 17.3221L20.6198 10.2777C21.0422 9.85537 21.6038 9.6228 22.2012 9.6228C22.7986 9.6228 23.3601 9.85549 23.7825 10.2779C24.2049 10.7002 24.4376 11.2618 24.4376 11.8592C24.4376 12.4566 24.205 13.0182 23.7825 13.4405L15.7398 21.4831C15.1653 22.0575 14.4014 22.3751 13.5889 22.3773C13.5861 22.3773 13.5833 22.3773 13.5806 22.3773ZM9.799 15.745C9.79719 15.745 9.79544 15.745 9.79363 15.745C9.53013 15.7464 9.283 15.8503 9.09769 16.0376C8.91238 16.2249 8.81113 16.4731 8.8125 16.7365C8.81388 17 8.91781 17.2472 9.10513 17.4325L12.3125 20.6059H12.3126C12.6524 20.9422 13.1027 21.1273 13.5806 21.1273H13.5856C14.0654 21.126 14.5166 20.9384 14.8559 20.5992L22.8986 12.5564C23.085 12.3702 23.1876 12.1226 23.1876 11.8591C23.1876 11.5956 23.085 11.3479 22.8987 11.1616C22.7124 10.9753 22.4647 10.8727 22.2012 10.8727C21.9377 10.8727 21.69 10.9753 21.5038 11.1616L14.0198 18.6455C13.7766 18.8887 13.3826 18.8897 13.1383 18.6478L10.4926 16.0301C10.3066 15.8461 10.0604 15.745 9.799 15.745Z"
        fill="#042F48" />
    <path
        d="M16 31.9999C11.7262 31.9999 7.70831 30.3356 4.68631 27.3136C1.66425 24.2916 0 20.2736 0 15.9999C0 8.284 5.49837 1.66738 13.0738 0.26694C13.4134 0.20394 13.7393 0.42844 13.802 0.76794C13.8647 1.10738 13.6404 1.43332 13.301 1.49607C6.31819 2.787 1.25 8.88669 1.25 15.9999C1.25 24.1331 7.86681 30.7499 16 30.7499C24.1332 30.7499 30.75 24.1331 30.75 15.9999C30.75 8.88669 25.6818 2.787 18.6989 1.49607C18.3595 1.43332 18.1352 1.10732 18.1979 0.76794C18.2607 0.428503 18.5868 0.204128 18.9261 0.26694C26.5016 1.66738 32 8.284 32 15.9999C32 20.2736 30.3358 24.2916 27.3137 27.3136C24.2917 30.3356 20.2738 31.9999 16 31.9999Z"
        fill="#042F48" />
    <path
        d="M16 1.25C16.3452 1.25 16.625 0.970178 16.625 0.625C16.625 0.279822 16.3452 0 16 0C15.6548 0 15.375 0.279822 15.375 0.625C15.375 0.970178 15.6548 1.25 16 1.25Z"
        fill="#042F48" />
    <path
        d="M16 28.875C8.90069 28.875 3.125 23.0993 3.125 16C3.125 8.90069 8.90069 3.125 16 3.125C23.0993 3.125 28.875 8.90069 28.875 16C28.875 23.0993 23.0993 28.875 16 28.875ZM16 4.375C9.58994 4.375 4.375 9.58994 4.375 16C4.375 22.4101 9.58994 27.625 16 27.625C22.4101 27.625 27.625 22.41 27.625 16C27.625 9.59 22.41 4.375 16 4.375Z"
        fill="#042F48" />
</svg>
