<svg width="375" height="135" viewBox="0 0 375 135" fill="none" xmlns="http://www.w3.org/2000/svg">
<path d="M68.0546 111.117C65.9877 111.117 64.1447 110.798 62.5256 110.16C60.9308 109.522 59.6305 108.625 58.6248 107.467C57.6248 106.286 56.9536 104.905 56.6111 103.322C56.2929 101.74 56.3619 100.015 56.8181 98.1493C57.2802 96.2597 58.0544 94.5355 59.1407 92.9766C60.2571 91.394 61.6012 90.0241 63.1729 88.8667C64.7504 87.6857 66.4925 86.7763 68.3992 86.1386C70.3302 85.5008 72.3291 85.182 74.3959 85.182C76.4871 85.182 78.3301 85.5008 79.9249 86.1386C81.5197 86.7763 82.8171 87.6857 83.817 88.8667C84.8228 90.0241 85.4848 91.394 85.803 92.9766C86.1513 94.5355 86.0944 96.2597 85.6324 98.1493C85.1761 100.015 84.3898 101.74 83.2733 103.322C82.1812 104.905 80.8464 106.286 79.2689 107.467C77.6972 108.625 75.958 109.522 74.0513 110.16C72.1446 110.798 70.1457 111.117 68.0546 111.117ZM75.0123 116.821C73.8208 116.821 72.7433 116.703 71.7798 116.467C70.8105 116.254 69.9031 115.888 69.0575 115.368C68.2363 114.849 67.4155 114.128 66.5951 113.207C65.769 112.309 64.8762 111.188 63.9166 109.841L73.336 107.715C73.7059 108.589 74.0398 109.263 74.3376 109.735C74.6355 110.207 74.9558 110.538 75.2987 110.727C75.6659 110.916 76.1048 111.01 76.6154 111.01C77.8798 111.01 79.1891 110.479 80.5432 109.416L83.2239 113.668C80.8862 115.77 78.149 116.821 75.0123 116.821ZM69.7092 104.35C70.5116 104.35 71.2879 104.208 72.0381 103.924C72.8125 103.641 73.5186 103.239 74.1563 102.72C74.8241 102.177 75.3963 101.527 75.8729 100.771C76.3552 99.9917 76.7148 99.1177 76.9516 98.1493C77.1884 97.1809 77.2533 96.3188 77.1463 95.5629C77.0451 94.7835 76.7906 94.1339 76.3827 93.6143C76.0049 93.071 75.4981 92.6577 74.8622 92.3742C74.2507 92.0908 73.5437 91.9491 72.7413 91.9491C71.9389 91.9491 71.1504 92.0908 70.376 92.3742C69.6258 92.6577 68.9169 93.071 68.2491 93.6143C67.6114 94.1339 67.0513 94.7835 66.569 95.5629C66.0924 96.3188 65.7357 97.1809 65.4989 98.1493C65.2621 99.1177 65.1943 99.9917 65.2955 100.771C65.4025 101.527 65.6449 102.177 66.0227 102.72C66.4305 103.239 66.9403 103.641 67.5518 103.924C68.1876 104.208 68.9068 104.35 69.7092 104.35ZM97.8045 111.117C93.8897 111.117 91.0893 110.089 89.4033 108.034C87.7174 105.979 87.3278 103.098 88.2345 99.3894L91.5698 85.7488H100.178L96.9029 99.1414C96.4409 101.031 96.4643 102.377 96.9731 103.18C97.4876 103.96 98.3407 104.35 99.5321 104.35C100.748 104.35 101.792 103.96 102.663 103.18C103.564 102.377 104.246 101.031 104.708 99.1414L107.983 85.7488H116.445L113.11 99.3894C112.203 103.098 110.404 105.979 107.713 108.034C105.022 110.089 101.719 111.117 97.8045 111.117ZM114.326 110.55L120.391 85.7488H128.998L122.934 110.55H114.326ZM126.166 110.55L127.422 105.412L145.58 89.3273L145.927 92.2325H131.01L132.595 85.7488H155.099L153.843 90.8862L135.685 106.971L135.338 104.066H151.204L149.619 110.55H126.166ZM158.529 99.9563C157.168 99.9563 156.129 99.5311 155.413 98.6808C154.702 97.8068 154.512 96.6967 154.841 95.3504C155.176 93.9804 155.907 92.8821 157.033 92.0554C158.159 91.2287 159.403 90.8153 160.765 90.8153C162.126 90.8153 163.168 91.2287 163.89 92.0554C164.612 92.8821 164.805 93.9804 164.47 95.3504C164.141 96.6967 163.408 97.8068 162.27 98.6808C161.138 99.5311 159.891 99.9563 158.529 99.9563ZM155.853 110.904C154.491 110.904 153.452 110.479 152.736 109.629C152.026 108.755 151.835 107.645 152.164 106.298C152.499 104.928 153.23 103.83 154.356 103.003C155.482 102.177 156.726 101.763 158.088 101.763C159.449 101.763 160.491 102.177 161.213 103.003C161.935 103.83 162.128 104.928 161.793 106.298C161.464 107.645 160.731 108.755 159.593 109.629C158.461 110.479 157.214 110.904 155.853 110.904ZM183.868 111.117C181.728 111.117 179.719 110.88 177.84 110.408C175.962 109.936 174.471 109.322 173.367 108.566L177.629 102.472C178.677 103.157 179.891 103.712 181.27 104.137C182.68 104.539 184.09 104.739 185.5 104.739C186.327 104.739 186.983 104.692 187.468 104.598C187.983 104.479 188.373 104.326 188.638 104.137C188.909 103.924 189.079 103.676 189.148 103.393C189.258 102.944 189.089 102.59 188.642 102.33C188.195 102.07 187.566 101.858 186.756 101.692C185.975 101.503 185.109 101.314 184.159 101.125C183.214 100.913 182.271 100.641 181.331 100.311C180.415 99.9799 179.597 99.5429 178.879 98.9996C178.185 98.4564 177.69 97.7478 177.393 96.8738C177.102 95.9763 177.118 94.8661 177.441 93.5434C177.817 92.0081 178.595 90.6146 179.777 89.3627C180.988 88.0872 182.562 87.0716 184.497 86.3157C186.457 85.5599 188.75 85.182 191.376 85.182C193.103 85.182 194.761 85.3591 196.353 85.7134C197.944 86.0677 199.318 86.611 200.477 87.3432L196.406 93.4017C195.291 92.7876 194.176 92.327 193.06 92.0199C191.968 91.7129 190.862 91.5594 189.744 91.5594C188.917 91.5594 188.243 91.6302 187.722 91.7719C187.201 91.9137 186.803 92.1026 186.526 92.3388C186.274 92.575 186.113 92.8348 186.044 93.1183C185.94 93.5434 186.111 93.8859 186.558 94.1457C187.011 94.3819 187.631 94.5827 188.417 94.748C189.228 94.9134 190.108 95.0905 191.059 95.2795C192.034 95.4685 192.98 95.7283 193.896 96.059C194.812 96.3896 195.617 96.8266 196.311 97.3699C197.029 97.9131 197.537 98.6217 197.834 99.4957C198.131 100.37 198.12 101.456 197.803 102.755C197.433 104.267 196.642 105.66 195.431 106.936C194.249 108.188 192.688 109.203 190.747 109.983C188.811 110.739 186.518 111.117 183.868 111.117ZM198.458 110.55L204.522 85.7488H216.814C219.197 85.7488 221.159 86.1268 222.701 86.8826C224.267 87.6384 225.35 88.725 225.952 90.1422C226.56 91.5357 226.63 93.1891 226.162 95.1023C225.694 97.0156 224.816 98.669 223.527 100.063C222.238 101.456 220.622 102.543 218.681 103.322C216.77 104.078 214.623 104.456 212.24 104.456H204.726L209.431 100.877L207.066 110.55H198.458ZM209.206 101.799L206.303 98.0076H213.269C214.461 98.0076 215.4 97.7478 216.086 97.2281C216.797 96.7085 217.262 95.9999 217.481 95.1023C217.701 94.2048 217.582 93.4962 217.126 92.9766C216.693 92.4569 215.882 92.1971 214.69 92.1971H207.724L212.48 88.4061L209.206 101.799ZM238.811 111.117C236.744 111.117 234.901 110.798 233.282 110.16C231.687 109.522 230.387 108.625 229.381 107.467C228.382 106.286 227.71 104.905 227.368 103.322C227.05 101.74 227.119 100.015 227.575 98.1493C228.037 96.2597 228.811 94.5355 229.897 92.9766C231.014 91.394 232.358 90.0241 233.93 88.8667C235.507 87.6857 237.249 86.7763 239.156 86.1386C241.087 85.5008 243.086 85.182 245.153 85.182C247.244 85.182 249.087 85.5008 250.682 86.1386C252.276 86.7763 253.574 87.6857 254.574 88.8667C255.579 90.0241 256.241 91.394 256.56 92.9766C256.908 94.5355 256.851 96.2597 256.389 98.1493C255.933 100.015 255.146 101.74 254.03 103.322C252.938 104.905 251.603 106.286 250.026 107.467C248.454 108.625 246.715 109.522 244.808 110.16C242.901 110.798 240.902 111.117 238.811 111.117ZM240.466 104.35C241.268 104.35 242.045 104.208 242.795 103.924C243.569 103.641 244.275 103.239 244.913 102.72C245.581 102.177 246.153 101.527 246.63 100.771C247.112 99.9917 247.472 99.1177 247.708 98.1493C247.945 97.1809 248.01 96.3188 247.903 95.5629C247.802 94.7835 247.547 94.1339 247.139 93.6143C246.762 93.071 246.255 92.6577 245.619 92.3742C245.007 92.0908 244.3 91.9491 243.498 91.9491C242.696 91.9491 241.907 92.0908 241.133 92.3742C240.383 92.6577 239.674 93.071 239.006 93.6143C238.368 94.1339 237.808 94.7835 237.326 95.5629C236.849 96.3188 236.492 97.1809 236.256 98.1493C236.019 99.1177 235.951 99.9917 236.052 100.771C236.159 101.527 236.402 102.177 236.779 102.72C237.187 103.239 237.697 103.641 238.308 103.924C238.944 104.208 239.663 104.35 240.466 104.35ZM256.481 110.55L262.545 85.7488H274.837C277.22 85.7488 279.182 86.1268 280.724 86.8826C282.29 87.6384 283.374 88.725 283.975 90.1422C284.583 91.5357 284.653 93.1891 284.185 95.1023C283.717 97.0156 282.839 98.669 281.55 100.063C280.266 101.432 278.66 102.484 276.73 103.216C274.825 103.948 272.68 104.314 270.298 104.314H262.784L267.454 100.877L265.089 110.55H256.481ZM271.764 110.55L267.699 101.515H276.818L280.955 110.55H271.764ZM267.229 101.799L264.326 98.0076H271.292C272.484 98.0076 273.423 97.7478 274.109 97.2281C274.82 96.7085 275.285 95.9999 275.504 95.1023C275.724 94.2048 275.605 93.4962 275.149 92.9766C274.716 92.4569 273.905 92.1971 272.713 92.1971H265.747L270.503 88.4061L267.229 101.799ZM288.846 110.55L293.325 92.2325H285.848L287.433 85.7488H310.995L309.41 92.2325H301.933L297.454 110.55H288.846Z" fill="white"/>
<g clip-path="url(#clip0_114_1188)">
<path d="M98.809 22.0847H115.628C123.316 22.0847 127.161 25.9673 128.602 27.9087L111.783 44.8951L98.809 22.0847Z" fill="white"/>
<path d="M67.0936 37.6152V52.1751L76.7043 42.4685L67.5741 76.4415H83.9123L84.513 74.0148L97.3674 22.0847H83.9123L67.0936 37.6152Z" fill="white"/>
<path d="M83.9123 76.4415H104.575L121.394 61.3963C123.316 66.4113 129.179 76.4415 137.252 76.4415H156.954L138.693 44.8951L163.681 22.0847H139.655L84.513 74.0148L83.9123 76.4415Z" fill="white"/>
<path fill-rule="evenodd" clip-rule="evenodd" d="M154.482 65.5701L165.093 22.0847H194.512C213.515 22.0847 212.647 41.692 202.904 47.8071C213.322 54.4076 203.58 76.4415 181.298 76.4415H160.656L154.482 65.5701ZM190.847 34.8974H178.018L175.993 42.6626H188.243C195.574 42.6626 197.696 34.8974 190.847 34.8974ZM173.195 54.1164L170.977 63.6288H184.577C193.451 63.6288 195.863 54.1164 186.699 54.1164H173.195Z" fill="#0098FF"/>
<path d="M207.585 76.4415L220.626 22.0847H262.778L259.75 34.7032H233.667L231.735 42.4685H257.969L254.92 55.087H228.837L226.401 63.6885H257.969L254.92 76.4415H207.585Z" fill="#0098FF"/>
<path d="M286.217 76.4553H270.26L280.355 34.9339H264.724L267.817 22.0704H316.015L312.921 34.6083H296.475L286.217 76.4553Z" fill="#0098FF"/>
</g>
<defs>
<clipPath id="clip0_114_1188">
<rect width="250.431" height="67.7368" fill="white" transform="translate(65.4211 15.3948)"/>
</clipPath>
</defs>
</svg>
